<?xml version="1.0" standalone="no"?>
<!DOCTYPE svg PUBLIC "-//W3C//DTD SVG 20010904//EN"
 "http://www.w3.org/TR/2001/REC-SVG-20010904/DTD/svg10.dtd">
<svg version="1.0" xmlns="http://www.w3.org/2000/svg"
 width="744.000000pt" height="744.000000pt" viewBox="0 0 744.000000 744.000000"
 preserveAspectRatio="xMidYMid meet">
<metadata>
Created by potrace 1.14, written by Peter Selinger 2001-2017
</metadata>
<g transform="translate(0.000000,744.000000) scale(0.100000,-0.100000)"
fill="#000000" stroke="none">
<path d="M3263 6725 c-229 -228 -606 -599 -1910 -1881 l-307 -301 25 -25 c13
-14 53 -58 89 -98 36 -40 76 -85 90 -100 22 -24 158 -174 185 -204 87 -96 216
-239 241 -266 18 -19 42 -45 52 -58 11 -12 55 -61 98 -109 44 -47 86 -94 94
-103 19 -22 170 -189 190 -210 8 -9 55 -61 104 -116 50 -54 99 -108 110 -120
12 -12 46 -49 76 -84 30 -34 69 -77 85 -94 17 -18 64 -70 105 -116 41 -46 98
-108 125 -138 28 -30 57 -62 65 -72 32 -37 167 -185 200 -219 l35 -37 123 1
c124 0 129 -1 123 -37 0 -4 -3 -33 -6 -65 -3 -32 -8 -65 -10 -73 -2 -8 -7 -42
-10 -75 -3 -33 -7 -69 -9 -80 -2 -11 -7 -49 -11 -85 -4 -36 -9 -78 -11 -95 -2
-16 -6 -52 -9 -80 -3 -27 -7 -61 -10 -75 -2 -14 -7 -56 -11 -95 -3 -38 -8 -79
-10 -90 -2 -11 -7 -47 -10 -80 -3 -33 -7 -71 -10 -85 -3 -14 -7 -47 -9 -75 -3
-27 -8 -66 -11 -85 -3 -19 -8 -55 -10 -80 -10 -95 -12 -106 -17 -145 -4 -22
-9 -67 -12 -100 -3 -33 -8 -71 -10 -85 -2 -14 -6 -52 -10 -85 -3 -33 -8 -71
-10 -85 -2 -14 -6 -51 -10 -83 l-6 -57 382 2 c373 3 382 3 385 23 15 115 27
219 29 261 2 29 5 60 8 70 5 17 13 77 23 174 2 19 6 55 9 80 11 74 13 92 20
160 3 36 8 76 10 90 2 14 7 50 10 80 3 30 8 66 10 80 2 14 7 50 10 80 3 30 10
91 16 135 5 44 12 96 14 115 2 19 7 60 10 90 4 30 8 66 10 80 3 14 7 54 10 90
3 36 7 72 9 80 3 8 7 42 10 75 4 33 9 76 12 95 l5 35 500 0 c487 0 500 0 522
20 12 11 42 36 67 55 25 19 47 37 50 40 3 3 39 32 80 64 41 33 82 67 92 75 9
9 29 26 45 38 15 12 39 31 53 42 28 23 27 22 90 71 25 19 47 37 50 40 3 3 27
24 55 45 27 22 55 45 61 50 6 6 26 21 44 35 18 14 38 30 44 35 6 6 34 28 61
50 28 22 59 48 70 58 l20 18 -20 15 c-67 50 -178 135 -185 143 -3 3 -43 35
-90 71 -47 35 -92 70 -100 77 -8 6 -121 93 -250 193 -129 100 -244 189 -255
198 -11 10 -38 31 -60 47 -22 17 -46 36 -53 43 -7 6 -17 12 -20 12 -4 0 -18
10 -32 23 -14 12 -86 70 -160 127 -74 57 -137 107 -140 110 -3 3 -21 17 -40
30 -19 14 -44 32 -55 42 -11 9 -78 62 -150 117 -71 56 -175 136 -230 178 -55
43 -111 88 -125 100 -14 13 -28 23 -32 23 -3 0 -13 6 -20 13 -7 7 -51 42 -98
77 -46 36 -94 72 -105 82 -54 44 -192 151 -205 158 -13 8 -15 127 -15 979 0
533 -3 971 -5 973 -3 2 -105 -96 -227 -217z"/>
<path d="M4935 6889 c-27 -28 -196 -194 -375 -370 l-325 -319 -1 -597 0 -598
37 -30 c20 -16 110 -86 199 -155 89 -69 188 -145 219 -170 103 -81 124 -98
285 -222 87 -68 165 -127 174 -133 9 -5 22 -16 30 -22 7 -7 41 -34 75 -60 34
-26 64 -51 65 -55 2 -4 10 -8 17 -8 7 0 15 -4 17 -8 2 -5 55 -49 118 -97 63
-49 120 -94 127 -100 36 -30 43 -35 52 -35 5 0 11 -4 13 -9 3 -9 133 -111 413
-326 72 -54 136 -105 144 -113 8 -7 26 -21 40 -30 14 -9 35 -25 46 -35 23 -20
319 -250 350 -271 20 -14 20 -15 -7 -40 -15 -14 -32 -26 -38 -26 -5 0 -10 -3
-10 -8 0 -4 -34 -34 -77 -67 -42 -33 -81 -64 -87 -70 -6 -5 -56 -46 -111 -90
-55 -44 -107 -85 -115 -92 -108 -88 -374 -303 -404 -324 -21 -16 -37 -30 -35
-30 2 -1 175 -2 383 -3 247 -1 383 2 390 9 6 6 43 35 81 65 39 30 72 57 75 61
3 3 41 35 85 69 44 35 87 69 95 77 8 7 35 29 60 49 25 20 54 43 65 52 11 10
99 80 195 157 96 77 177 142 180 145 3 3 18 15 33 27 l28 21 -73 57 c-40 31
-86 67 -103 80 -120 93 -335 260 -359 278 -16 12 -77 59 -135 104 -58 46 -117
92 -131 102 -14 11 -35 28 -47 38 -11 10 -31 25 -43 33 -13 8 -32 23 -44 32
-11 10 -41 33 -64 53 -24 19 -57 43 -73 52 -16 10 -29 20 -29 23 0 4 -21 22
-47 41 -27 18 -55 39 -63 46 -15 13 -124 97 -265 206 -44 34 -85 66 -91 72 -6
5 -23 19 -38 30 -31 22 -214 164 -233 180 -7 5 -31 25 -55 42 -24 18 -99 77
-168 130 -69 54 -174 136 -235 183 -60 46 -111 87 -113 92 -2 4 -10 8 -17 8
-7 0 -14 8 -16 18 -2 9 -4 448 -3 975 0 526 -2 957 -5 957 -3 0 -28 -23 -56
-51z"/>
<path d="M629 4527 c-54 -49 -193 -174 -222 -200 l-20 -17 24 -27 c33 -37 80
-89 131 -144 24 -26 71 -78 105 -116 34 -38 74 -83 90 -100 15 -17 57 -63 93
-103 94 -105 97 -108 190 -210 117 -129 117 -129 190 -210 36 -40 70 -78 76
-84 9 -10 129 -142 273 -302 25 -28 81 -88 123 -135 42 -46 85 -94 95 -105 10
-12 56 -63 103 -114 47 -51 92 -100 100 -110 8 -10 52 -57 96 -106 44 -49 105
-116 134 -149 30 -33 71 -78 91 -100 21 -22 47 -51 59 -65 19 -22 118 -131
190 -210 14 -15 53 -58 87 -96 34 -38 81 -90 105 -117 l44 -47 58 52 c33 29
82 74 110 99 28 26 66 60 84 75 39 35 40 44 5 76 -16 14 -49 49 -75 79 -25 30
-55 63 -65 75 -18 21 -153 170 -208 229 -17 18 -62 68 -100 111 -39 43 -93
103 -122 134 -28 30 -68 75 -90 99 -21 24 -51 58 -68 76 -16 17 -64 69 -105
115 -41 47 -82 91 -90 100 -8 9 -49 53 -90 99 -41 47 -94 105 -118 130 -24 25
-62 68 -85 95 -23 27 -58 65 -77 85 -19 20 -53 57 -74 81 -22 25 -64 72 -95
106 -31 33 -90 98 -131 144 -41 46 -100 111 -131 144 -31 34 -71 79 -90 101
-19 21 -47 53 -64 70 -16 18 -59 65 -95 105 -36 39 -84 93 -108 119 -23 25
-59 65 -80 89 -20 23 -65 71 -98 107 -34 36 -60 65 -58 65 2 0 -8 11 -22 25
-14 14 -26 25 -27 25 -1 0 -23 -19 -48 -43z"/>
<path d="M202 3712 l-202 -198 0 -1517 0 -1517 1150 0 c1088 0 1150 1 1151 18
0 9 2 26 4 37 4 18 12 85 19 160 3 27 11 93 21 165 12 91 18 146 17 151 0 3 3
35 8 70 12 85 21 166 25 209 2 19 11 96 20 170 27 214 30 195 -50 285 -38 43
-86 95 -105 116 -19 20 -62 67 -95 104 -33 38 -82 91 -108 119 -27 28 -65 70
-85 94 -20 24 -55 62 -77 86 -22 23 -67 73 -100 110 -33 38 -71 80 -85 95 -22
24 -137 150 -210 231 -14 15 -54 60 -90 100 -36 40 -81 90 -100 110 -19 20
-63 68 -97 107 -34 38 -76 85 -93 104 -49 52 -97 105 -190 209 -47 52 -94 104
-105 116 -11 12 -48 52 -82 90 -34 38 -78 87 -98 109 -20 22 -62 69 -93 103
-31 35 -77 86 -102 113 l-45 50 -203 -199z"/>
</g>
</svg>
