<?xml version="1.0" standalone="no"?>
<!DOCTYPE svg PUBLIC "-//W3C//DTD SVG 20010904//EN"
 "http://www.w3.org/TR/2001/REC-SVG-20010904/DTD/svg10.dtd">
<svg version="1.0" xmlns="http://www.w3.org/2000/svg"
 width="1000.000000pt" height="1000.000000pt" viewBox="0 0 1000.000000 1000.000000"
 preserveAspectRatio="xMidYMid meet">
<metadata>
Created by potrace 1.11, written by Peter Selinger 2001-2013
</metadata>
<g transform="translate(0.000000,1000.000000) scale(0.100000,-0.100000)"
fill="#000000" stroke="none">
<path d="M4498 9157 c-108 -105 -397 -390 -643 -632 -246 -242 -511 -503 -590
-580 -79 -77 -345 -339 -592 -581 -246 -243 -513 -506 -593 -584 -380 -372
-658 -648 -664 -658 -3 -6 0 -16 7 -24 7 -7 76 -83 152 -168 165 -183 211
-234 245 -270 14 -14 59 -64 100 -111 41 -46 80 -88 86 -94 6 -5 48 -52 95
-104 46 -52 91 -102 99 -111 8 -9 51 -56 95 -104 44 -49 91 -101 105 -116 14
-15 57 -63 95 -105 39 -43 75 -83 81 -89 5 -6 57 -63 113 -126 57 -63 124
-138 150 -165 25 -28 82 -91 126 -139 44 -49 94 -104 110 -122 17 -17 47 -51
69 -75 21 -24 78 -87 126 -139 48 -52 133 -147 190 -210 57 -63 138 -153 181
-200 43 -47 86 -94 96 -106 10 -12 56 -63 103 -114 47 -51 90 -98 95 -104 6
-6 33 -36 60 -66 l50 -55 160 -2 c88 -1 165 -2 172 -2 6 -1 10 -9 9 -19 -2 -9
-7 -44 -10 -77 -4 -33 -9 -71 -11 -85 -2 -14 -11 -88 -20 -165 -8 -77 -18
-156 -21 -175 -2 -19 -7 -57 -10 -85 -2 -27 -7 -68 -10 -90 -8 -66 -13 -106
-24 -200 -6 -49 -12 -106 -15 -125 -2 -19 -7 -60 -10 -90 -3 -30 -8 -62 -10
-70 -2 -8 -6 -46 -10 -83 -3 -37 -8 -76 -10 -86 -2 -10 -6 -54 -10 -97 -4 -43
-9 -82 -11 -85 -2 -3 -6 -35 -9 -70 -3 -35 -7 -75 -10 -89 -2 -14 -7 -50 -10
-80 -3 -30 -7 -66 -10 -80 -2 -14 -7 -54 -11 -90 -3 -36 -7 -72 -9 -80 -2 -8
-6 -44 -10 -80 -3 -36 -8 -76 -10 -90 -2 -14 -7 -50 -10 -80 -4 -30 -8 -64
-10 -75 -1 -11 -5 -49 -9 -85 -4 -36 -9 -76 -11 -90 l-4 -25 509 1 c281 1 513
4 517 8 8 8 11 21 18 106 4 36 8 72 10 80 2 8 7 47 10 85 4 39 8 77 10 85 2 8
7 44 10 80 3 36 8 72 10 80 2 8 7 44 10 80 3 36 8 76 10 90 2 14 7 50 10 80 3
30 8 66 10 80 4 31 17 135 31 260 2 25 7 62 9 83 15 115 17 131 30 247 4 30 8
66 10 80 2 14 6 50 10 80 13 111 15 127 30 255 9 72 18 144 20 160 2 17 7 57
10 90 3 33 8 71 10 85 2 14 6 50 10 80 3 30 8 66 10 80 2 14 7 52 10 85 8 83
10 93 18 101 4 4 303 7 665 7 407 0 664 3 676 9 10 6 57 42 105 80 47 39 104
85 126 103 22 17 90 72 150 120 161 129 308 249 322 260 6 6 84 69 174 140 89
72 202 162 250 202 l88 71 -53 44 c-30 23 -69 54 -87 68 -124 96 -419 325
-444 344 -38 30 -315 244 -378 294 -27 20 -70 54 -95 74 -26 20 -216 167 -422
327 -206 160 -388 301 -404 313 -16 13 -185 144 -375 291 -190 148 -389 302
-441 343 -112 87 -304 236 -456 353 -60 46 -113 88 -118 92 -5 5 -9 548 -9
1314 0 718 0 1305 -1 1305 -1 0 -89 -87 -198 -193z"/>
<path d="M6480 9118 c-129 -127 -360 -353 -512 -503 l-278 -273 0 -804 0 -805
193 -149 c186 -144 713 -553 1277 -991 151 -117 444 -344 650 -504 206 -159
411 -318 455 -353 44 -34 221 -171 392 -305 l313 -243 -52 -41 c-29 -22 -61
-49 -73 -58 -11 -10 -83 -68 -160 -130 -77 -62 -241 -194 -364 -293 -123 -100
-238 -192 -255 -206 -18 -14 -50 -39 -72 -57 -21 -17 -82 -66 -134 -108 -52
-42 -99 -80 -103 -84 -4 -4 224 -8 507 -8 l515 0 303 244 c167 134 312 252
323 261 11 9 40 33 65 52 25 19 50 39 56 45 7 5 29 24 49 40 21 17 45 37 55
45 10 8 97 78 194 155 l176 140 -28 25 c-31 27 -110 89 -607 474 -181 141
-482 374 -668 519 -186 144 -436 337 -555 429 -119 92 -224 174 -232 181 -8 7
-53 42 -100 78 -47 35 -90 69 -96 74 -6 6 -145 114 -309 240 -163 127 -365
283 -449 349 -83 65 -170 131 -193 147 l-43 30 -2 1309 -3 1309 -235 -231z"/>
<path d="M869 6122 c-23 -24 -265 -245 -327 -298 l-25 -22 49 -53 c27 -30 54
-59 59 -65 47 -53 166 -184 189 -209 15 -16 54 -59 86 -95 63 -70 62 -69 195
-216 50 -54 115 -126 145 -159 30 -34 96 -106 145 -160 50 -55 108 -120 130
-144 22 -25 49 -55 60 -66 22 -23 152 -167 182 -201 10 -12 55 -61 100 -110
45 -49 90 -99 100 -110 22 -26 159 -177 188 -208 11 -12 58 -64 105 -116 81
-91 153 -170 175 -194 6 -6 37 -40 70 -76 32 -36 97 -107 143 -158 47 -51 94
-102 104 -115 11 -12 54 -60 96 -106 42 -47 86 -95 97 -107 68 -75 179 -198
230 -254 95 -104 302 -333 340 -376 6 -6 49 -53 96 -105 47 -52 99 -109 115
-127 l29 -33 35 32 c19 17 78 71 130 119 52 48 117 106 144 129 63 55 76 68
76 78 0 4 -17 27 -38 49 -20 23 -71 79 -112 125 -41 46 -102 113 -135 149
-100 109 -220 243 -256 284 -19 22 -45 51 -59 65 -14 14 -60 65 -103 112 -42
48 -87 98 -100 111 -12 14 -44 49 -71 79 -27 30 -88 97 -135 149 -91 100 -164
181 -246 271 -166 184 -204 226 -243 267 -24 25 -57 62 -74 82 -31 35 -146
163 -189 211 -13 14 -60 65 -104 114 -44 48 -91 100 -105 115 -14 15 -57 63
-95 106 -39 42 -81 89 -95 104 -14 14 -61 67 -105 116 -78 87 -143 158 -197
217 -15 16 -56 61 -90 100 -35 39 -72 80 -83 91 -11 12 -58 64 -105 116 -112
125 -160 177 -190 210 -14 14 -61 66 -105 115 -44 49 -99 110 -122 135 -24 25
-43 48 -43 53 0 16 -36 4 -61 -21z"/>
<path d="M267 4998 l-267 -263 2 -2039 3 -2039 1538 0 c845 0 1540 2 1542 5 7
7 12 31 20 108 3 36 8 72 10 80 2 8 6 46 10 83 3 37 8 76 9 85 2 9 7 49 11 87
4 39 8 77 10 85 2 8 6 44 9 80 4 36 9 76 11 90 2 14 7 50 10 80 4 30 8 66 10
80 2 14 6 52 10 85 3 33 8 71 10 85 4 29 11 90 21 175 3 33 8 68 9 77 2 9 7
48 10 85 4 37 9 75 10 83 2 8 6 43 10 76 l6 61 -53 59 c-48 53 -105 116 -207
229 -20 22 -63 69 -96 105 -104 113 -229 252 -248 274 -10 12 -49 55 -87 96
-38 41 -77 85 -88 97 -10 12 -57 64 -104 115 -88 96 -248 273 -378 417 -41 46
-86 96 -100 111 -14 15 -57 63 -95 105 -39 43 -75 83 -81 89 -5 6 -59 65 -119
131 -139 154 -187 207 -249 275 -28 30 -85 93 -126 139 -41 46 -84 94 -95 105
-11 12 -81 89 -155 171 -74 82 -144 159 -155 171 -11 11 -54 58 -95 104 -41
46 -97 108 -125 138 -27 30 -54 61 -58 68 -4 8 -13 14 -20 14 -7 0 -133 -118
-280 -262z"/>
</g>
</svg>
