<?xml version="1.0" standalone="no"?>
<!DOCTYPE svg PUBLIC "-//W3C//DTD SVG 20010904//EN"
 "http://www.w3.org/TR/2001/REC-SVG-20010904/DTD/svg10.dtd">
<svg version="1.0" xmlns="http://www.w3.org/2000/svg"
 width="438.000000pt" height="438.000000pt" viewBox="0 0 438.000000 438.000000"
 preserveAspectRatio="xMidYMid meet">
<metadata>
Created by potrace 1.14, written by Peter Selinger 2001-2017
</metadata>
<g transform="translate(0.000000,438.000000) scale(0.100000,-0.100000)"
fill="#000000" stroke="none">
<path d="M382 2192 l3 -2185 1785 1 c982 0 1796 1 1810 1 l25 1 0 2183 0 2182
-1813 1 -1812 2 2 -2186z m3470 2025 c7 -22 3 -4046 -4 -4053 -6 -5 -1544 -10
-1687 -5 -23 1 -24 2 -16 74 4 39 9 83 10 97 2 14 6 43 9 65 8 57 24 191 31
255 3 30 10 89 15 130 6 41 12 90 14 108 2 18 7 36 10 40 4 4 101 7 214 7
l207 0 192 154 c105 84 189 159 186 165 -2 6 -25 27 -51 47 -73 55 -371 286
-542 418 -85 67 -219 171 -297 232 l-143 111 -2 413 -3 413 -216 -211 c-119
-117 -354 -347 -522 -512 l-305 -301 20 -24 c11 -14 43 -50 72 -81 28 -30 85
-93 126 -139 41 -46 80 -88 85 -94 6 -6 57 -63 114 -126 173 -191 193 -213
246 -270 27 -30 78 -87 113 -126 l63 -71 54 1 54 2 -5 -46 c-2 -25 -6 -58 -8
-75 -3 -16 -8 -57 -12 -90 -3 -33 -8 -67 -9 -75 -2 -8 -6 -46 -10 -85 -4 -38
-9 -78 -11 -87 -1 -9 -6 -48 -9 -85 -4 -37 -9 -77 -11 -88 -2 -11 -7 -47 -10
-80 -4 -33 -8 -62 -10 -64 -2 -3 -236 -4 -297 -2 -13 1 -16 7 -13 24 5 21 8
44 21 157 15 133 24 204 31 253 6 37 3 40 -177 240 -101 111 -198 218 -215
237 -18 19 -41 44 -51 56 -10 12 -56 63 -103 114 -47 51 -92 101 -100 110 -8
9 -47 53 -87 96 -40 43 -86 94 -103 113 l-30 35 -37 -35 c-21 -19 -54 -52 -75
-74 l-38 -40 0 1391 0 1392 1659 0 c1252 0 1660 -3 1663 -11z"/>
<path d="M2468 2723 l-157 -158 0 -252 0 -253 312 -242 c172 -133 382 -296
467 -362 85 -67 179 -139 208 -161 29 -21 51 -42 50 -46 -2 -4 -41 -38 -88
-76 -47 -38 -131 -106 -187 -152 -57 -45 -103 -83 -103 -84 0 -2 74 -2 164 -2
l164 0 191 154 c105 84 191 156 191 161 0 4 -14 18 -31 31 -18 13 -251 194
-518 401 l-486 378 -1 407 c0 241 -4 408 -10 410 -5 2 -80 -68 -166 -154z"/>
<path d="M725 1815 l-59 -55 39 -41 c45 -47 38 -40 155 -169 47 -52 106 -117
132 -145 26 -28 55 -60 65 -71 10 -12 50 -57 89 -100 40 -43 84 -92 99 -109
15 -16 42 -46 59 -65 18 -19 59 -64 91 -100 32 -36 96 -105 141 -155 45 -49
99 -110 121 -134 l40 -44 54 51 c30 29 57 52 62 52 13 0 8 19 -11 37 -10 10
-58 63 -107 118 -127 141 -157 173 -185 204 -14 15 -63 69 -110 121 -47 52
-92 101 -100 110 -8 9 -51 56 -95 106 -44 49 -99 109 -122 134 -23 25 -50 55
-60 66 -10 12 -56 63 -103 114 -47 51 -91 101 -98 111 -20 28 -31 24 -97 -36z"/>
</g>
</svg>
